<?xml version="1.0" standalone="no"?>
<!DOCTYPE svg PUBLIC "-//W3C//DTD SVG 20010904//EN"
 "http://www.w3.org/TR/2001/REC-SVG-20010904/DTD/svg10.dtd">
<svg version="1.0" xmlns="http://www.w3.org/2000/svg"
 width="700.000000pt" height="700.000000pt" viewBox="0 0 700.000000 700.000000"
 preserveAspectRatio="xMidYMid meet">
<metadata>
Created by potrace 1.14, written by Peter Selinger 2001-2017
</metadata>
<g transform="translate(0.000000,700.000000) scale(0.100000,-0.100000)"
fill="#000000" stroke="none">
<path d="M3298 6295 c-2 -2 -37 -6 -78 -9 -751 -66 -1485 -479 -1956 -1101
-118 -156 -171 -243 -272 -445 -94 -190 -148 -329 -196 -510 -24 -92 -30 -115
-42 -190 -3 -19 -8 -38 -9 -41 -2 -3 -7 -28 -10 -55 -4 -27 -8 -60 -11 -74
-19 -112 -26 -494 -11 -640 35 -351 120 -645 277 -965 344 -699 946 -1212
1696 -1444 55 -17 109 -33 120 -36 303 -66 416 -80 679 -80 217 0 353 10 490
35 28 5 64 12 81 15 107 17 329 84 489 147 186 73 510 256 642 362 209 168
349 303 473 456 25 30 47 57 50 60 3 3 33 43 66 90 272 381 431 783 500 1260
22 152 26 516 8 665 -19 158 -22 175 -33 228 -6 26 -14 64 -17 83 -24 150
-119 415 -229 639 -231 468 -582 855 -1030 1135 -326 204 -729 348 -1105 396
-30 4 -71 9 -90 11 -41 5 -477 13 -482 8z m369 -1668 c5 -3 29 -8 53 -12 25
-3 85 -20 134 -36 342 -114 611 -383 725 -724 16 -49 32 -103 35 -119 12 -65
18 -118 21 -168 2 -29 4 -56 4 -60 1 -5 257 -8 570 -8 l568 0 -3 -62 c-6 -105
-14 -204 -19 -245 -47 -319 -153 -613 -320 -887 -105 -171 -338 -440 -480
-552 -27 -21 -52 -42 -55 -45 -11 -13 -150 -110 -215 -149 -118 -72 -385 -200
-418 -200 -5 0 -23 -7 -40 -15 -79 -36 -360 -96 -532 -111 -125 -12 -385 -6
-488 11 -18 2 -48 7 -67 10 -19 2 -46 7 -60 10 -14 3 -38 8 -55 10 -65 12
-281 78 -363 111 -532 219 -941 596 -1196 1101 -147 291 -224 591 -238 925
l-3 83 568 3 c312 1 567 6 568 10 0 4 2 36 5 72 12 189 81 389 195 560 38 58
188 217 249 265 133 104 368 202 535 221 28 4 51 7 53 9 5 4 261 -3 269 -8z"/>
<path d="M3356 4273 c-276 -53 -498 -241 -596 -505 -30 -83 -42 -146 -45 -246
-9 -305 155 -581 430 -724 190 -99 436 -111 637 -32 394 154 596 587 463 989
-86 257 -327 466 -600 520 -61 12 -222 11 -289 -2z"/>
</g>
</svg>
